<svg width="1252" height="368" viewBox="0 0 1252 368" fill="none" xmlns="http://www.w3.org/2000/svg">
<path id="Vector" fill-rule="evenodd" clip-rule="evenodd" d="M220.22 45.3522V348.563L220.942 349.859H255.599V158.085L256.321 156.789H257.043L258.487 159.38V160.676L260.653 164.563V165.859L262.097 168.451V169.747L263.541 172.338V173.634L264.985 176.225V177.521L266.429 180.113V181.409L267.874 184V185.296L268.596 186.592V187.887L270.04 190.479V191.775L271.484 194.366V195.662L272.928 198.254V199.549L275.094 203.437V204.732L276.538 207.324V208.62L277.982 211.211V212.507L279.426 215.099V216.394L281.592 220.282V221.578L283.036 224.169V225.465L284.48 228.056V229.352L285.924 231.944V233.24L288.09 237.127V238.423L289.534 241.014V242.31L290.979 244.901V246.197L292.423 248.789V250.085L294.589 253.972V255.268L296.033 257.859V259.155L297.477 261.747V263.042L298.921 265.634V266.93L300.365 269.521V270.817L302.531 274.704V276L303.975 278.592V279.887L305.419 282.479V283.775L306.863 286.366V287.662L309.029 291.549V292.845L310.473 295.437V296.732L311.917 299.324V300.62L313.361 303.211V304.507L315.528 308.394V309.69L316.972 312.282V313.578L318.416 316.169V317.465L319.86 320.056V321.352L322.026 325.24V326.535L323.47 329.127V330.423L324.914 333.014V334.31L326.358 336.901V338.197L328.524 342.085V343.38L329.968 345.972V347.268L331.412 349.859H361.015V45.3522H326.358V237.127L325.636 238.423H324.914L322.748 234.535V233.24L321.304 230.648V229.352L319.86 226.761V225.465L318.416 222.873V221.578L316.972 218.986V217.69L314.805 213.803V212.507L313.361 209.916V208.62L311.917 206.028V204.732L310.473 202.141V200.845L309.029 198.254V196.958L307.585 194.366V193.07L305.419 189.183V187.887L303.975 185.296V182.704L302.531 180.113V178.817L301.087 176.225V174.93L299.643 172.338V171.042L297.477 167.155V165.859L296.033 163.268V161.972L294.589 159.38V158.085L293.145 155.493V154.197L291.701 151.606V150.31L289.534 146.423V145.127L288.09 142.535V141.239L286.646 138.648V137.352L285.202 134.761V133.465L283.758 130.873V129.578L282.314 126.986V125.69L280.148 121.803V120.507L278.704 117.916V116.62L277.26 114.028V112.732L275.816 110.141V108.845L274.372 106.254V104.958L272.206 101.07V99.7747L270.762 97.1832V95.8874L269.318 93.2958V92L267.874 89.4085V88.1127L266.429 85.5212V84.2254L264.263 80.3381V79.0423L262.819 76.4508V75.155L261.375 72.5634V71.2677L259.931 68.6761V67.3803L258.487 64.7888V63.493L257.043 60.9015V59.6057L254.877 55.7184V54.4226L253.433 51.831V50.5353L251.989 47.9437V46.6479L251.267 45.3522H220.22ZM106.139 41.4648L105.417 42.7606H100.363L99.6405 44.0564H96.0304L95.3084 45.3522H93.1423L92.4202 46.6479H90.2542L89.5321 47.9437H88.0881L87.366 49.2395H85.922L85.2 50.5353H83.7559L83.0339 51.831H82.3118L81.5898 53.1268H80.1457L79.4237 54.4226H78.7017L77.9797 55.7184H77.2576L76.5356 57.0141H75.8136L75.0915 58.3099H74.3695L72.9254 60.9015H72.2034L71.4814 62.1972H70.7594L69.3153 64.7888H68.5933L67.1492 67.3803H66.4272L63.5391 72.5634H62.817L54.8747 86.817V88.1127L51.9866 93.2958V94.5916L50.5425 97.1832V98.4789L49.0985 101.07V102.366L47.6544 104.958V106.254L46.9324 107.549V108.845L45.4883 111.437V112.732L44.7663 114.028V115.324L44.0442 116.62V117.916L43.3222 119.211V121.803L42.6002 123.099V124.394L41.8782 125.69V126.986L41.1561 128.282V130.873L40.4341 132.169V134.761L39.7121 136.056V138.648L38.99 139.944V143.831L38.268 145.127V149.014L37.546 150.31V154.197L36.8239 155.493V161.972L36.1019 163.268V172.338L35.3799 173.634V220.282L36.1019 221.578V230.648L36.8239 231.944V238.423L37.546 239.718V244.901L38.268 246.197V250.085L38.99 251.38V255.268L39.7121 256.563V259.155L40.4341 260.451V263.042L41.1561 264.338V265.634L41.8782 266.93V269.521L42.6002 270.817V272.113L43.3222 273.409V276L44.0442 277.296V278.592L44.7663 279.887V281.183L46.2103 283.775V285.07L46.9324 286.366V287.662L47.6544 288.958V290.254L49.0985 292.845V294.141L50.5425 296.732V298.028L52.7086 301.916V303.211L56.3188 309.69V310.986L61.373 320.056H62.095L65.7051 326.535H66.4272L67.8712 329.127H68.5933L70.0373 331.718H70.7594L72.2034 334.31H72.9254L73.6475 335.606H74.3695L75.0915 336.901H75.8136L76.5356 338.197H77.2576L77.9797 339.493H78.7017L79.4237 340.789H80.1457L80.8678 342.085H81.5898L82.3118 343.38H83.7559L84.4779 344.676H85.2L85.922 345.972H87.366L88.0881 347.268H90.2542L90.9762 348.563H92.4202L93.1423 349.859H96.0304L96.7524 351.155H99.6405L100.363 352.451H106.139L106.861 353.747H120.579L121.301 352.451H127.078L127.8 351.155H131.41L132.132 349.859H134.298L135.02 348.563H137.186L137.908 347.268H139.352L140.074 345.972H141.518L142.24 344.676H143.684L144.406 343.38H145.85L146.573 342.085H147.295L148.017 340.789H148.739L149.461 339.493H150.183L150.905 338.197H151.627L152.349 336.901H153.071L153.793 335.606H154.515L155.237 334.31H155.959L157.403 331.718H158.125L159.569 329.127H160.291L162.457 325.24H163.179L167.511 317.465H168.233L171.122 312.282V310.986L174.732 304.507V303.211L176.898 299.324V298.028L178.342 295.437V294.141L179.786 291.549V290.254L181.23 287.662V286.366L181.952 285.07V283.775L182.674 282.479V281.183L183.396 279.887V278.592L184.118 277.296V276L184.84 274.704V273.409L185.562 272.113V270.817L186.284 269.521V266.93L187.006 265.634V263.042L187.728 261.747V259.155L188.45 257.859V255.268L189.172 253.972V251.38L189.894 250.085V246.197L190.616 244.901V239.718L191.338 238.423V231.944L192.06 230.648V220.282L192.782 218.986V176.225L192.06 174.93V164.563L191.338 163.268V156.789L190.616 155.493V150.31L189.894 149.014V145.127L189.172 143.831V141.239L188.45 139.944V136.056L187.728 134.761V132.169L187.006 130.873V129.578L186.284 128.282V125.69L185.562 124.394V123.099L184.84 121.803V120.507L184.118 119.211V117.916L183.396 116.62V115.324L182.674 114.028V112.732L181.952 111.437V110.141L181.23 108.845V107.549L180.508 106.254V104.958L179.064 102.366V101.07L177.62 98.4789V97.1832L175.454 93.2958V92L171.844 85.5212V84.2254L166.789 75.155H166.067L162.457 68.6761H161.735L160.291 66.0846H159.569L158.125 63.493H157.403L155.959 60.9015H155.237L154.515 59.6057H153.793L153.071 58.3099H152.349L151.627 57.0141H150.905L150.183 55.7184H149.461L148.739 54.4226H148.017L147.295 53.1268H146.573L145.85 51.831H144.406L143.684 50.5353H142.962L142.24 49.2395H140.796L140.074 47.9437H138.63L137.908 46.6479H135.742L135.02 45.3522H132.854L132.132 44.0564H129.244L128.522 42.7606H123.468L122.746 41.4648H106.139ZM105.417 98.4789L106.139 97.1832H122.023L122.746 98.4789H124.912L125.634 99.7747H127.8L128.522 101.07H129.966L130.688 102.366H131.41L132.132 103.662H132.854L133.576 104.958H134.298L135.02 106.254H135.742L137.186 108.845H137.908L141.518 115.324H142.24L143.684 117.916V119.211L147.295 125.69V126.986L148.739 129.578V130.873L149.461 132.169V133.465L150.183 134.761V136.056L150.905 137.352V138.648L151.627 139.944V141.239L152.349 142.535V143.831L153.071 145.127V147.718L153.793 149.014V151.606L154.515 152.901V155.493L155.237 156.789V160.676L155.959 161.972V167.155L156.681 168.451V176.225L157.403 177.521V216.394L156.681 217.69V225.465L155.959 226.761V233.24L155.237 234.535V238.423L154.515 239.718V242.31L153.793 243.606V246.197L153.071 247.493V250.085L152.349 251.38V252.676L151.627 253.972V255.268L150.905 256.563V257.859L150.183 259.155V260.451L149.461 261.747V263.042L148.739 264.338V265.634L146.573 269.521V270.817L138.63 285.07H137.908L136.464 287.662H135.742L135.02 288.958H134.298L132.854 291.549H131.41L130.688 292.845H129.966L129.244 294.141H127.8L127.078 295.437H125.634L124.912 296.732H122.023L121.301 298.028H106.861L106.139 296.732H103.251L102.529 295.437H101.085L100.363 294.141H98.9185L98.1965 292.845H96.7524L96.0304 291.549H95.3084L94.5863 290.254H93.8643L92.4202 287.662H91.6982L90.2542 285.07H89.5321L80.8678 269.521V268.225L79.4237 265.634V264.338L78.7017 263.042V261.747L77.2576 259.155V257.859L76.5356 256.563V253.972L75.8136 252.676V251.38L75.0915 250.085V248.789L74.3695 247.493V244.901L73.6475 243.606V239.718L72.9254 238.423V234.535L72.2034 233.24V229.352L71.4814 228.056V220.282L70.7594 218.986V177.521L71.4814 176.225V168.451L72.2034 167.155V161.972L72.9254 160.676V156.789L73.6475 155.493V151.606L74.3695 150.31V147.718L75.0915 146.423V145.127L75.8136 143.831V141.239L76.5356 139.944V138.648L77.2576 137.352V136.056L77.9797 134.761V133.465L79.4237 130.873V129.578L80.8678 126.986V125.69L83.7559 120.507V119.211L86.644 114.028H87.366L90.2542 108.845H90.9762L92.4202 106.254H93.1423L93.8643 104.958H94.5863L95.3084 103.662H96.0304L96.7524 102.366H97.4745L98.1965 101.07H99.6405L100.363 99.7747H101.807L102.529 98.4789H105.417ZM916.979 34.986V338.197H987.015L987.737 336.901H993.514L994.236 335.606H997.124L997.846 334.31H1000.73L1001.46 333.014H1003.62L1004.34 331.718H1005.79L1006.51 330.423H1007.95L1008.68 329.127H1010.12L1010.84 327.831H1012.29L1013.01 326.535H1013.73L1014.45 325.24H1015.17L1015.9 323.944H1017.34L1018.06 322.648H1018.78L1019.51 321.352H1020.23L1021.67 318.761H1022.39L1023.12 317.465H1023.84L1025.28 314.873H1026.01L1027.45 312.282H1028.17L1030.34 308.394H1031.06L1041.17 290.254V288.958L1043.33 285.07V283.775L1044.78 281.183V279.887L1046.22 277.296V276L1046.94 274.704V273.409L1048.39 270.817V269.521L1049.11 268.225V266.93L1049.83 265.634V264.338L1050.55 263.042V261.747L1051.28 260.451V257.859L1052 256.563V255.268L1052.72 253.972V251.38L1053.44 250.085V247.493L1054.16 246.197V243.606L1054.89 242.31V239.718L1055.61 238.423V234.535L1056.33 233.24V228.056L1057.05 226.761V221.578L1057.77 220.282V211.211L1058.5 209.916V163.268L1057.77 161.972V152.901L1057.05 151.606V145.127L1056.33 143.831V139.944L1055.61 138.648V134.761L1054.89 133.465V129.578L1054.16 128.282V125.69L1053.44 124.394V121.803L1052.72 120.507V119.211L1052 117.916V115.324L1051.28 114.028V112.732L1050.55 111.437V110.141L1049.83 108.845V107.549L1049.11 106.254V104.958L1048.39 103.662V102.366L1047.67 101.07V99.7747L1046.94 98.4789V97.1832L1045.5 94.5916V93.2958L1044.06 90.7043V89.4085L1041.89 85.5212V84.2254L1036.84 75.155V73.8592L1036.11 72.5634H1035.39L1030.34 63.493H1029.62L1028.17 60.9015H1027.45L1026.01 58.3099H1025.28L1023.84 55.7184H1023.12L1022.39 54.4226H1021.67L1020.23 51.831H1019.51L1018.78 50.5353H1018.06L1017.34 49.2395H1016.62L1015.9 47.9437H1014.45L1013.73 46.6479H1013.01L1012.29 45.3522H1010.84L1010.12 44.0564H1009.4L1008.68 42.7606H1007.23L1006.51 41.4648H1004.34L1003.62 40.1691H1001.46L1000.73 38.8733H998.568L997.846 37.5775H994.958L994.236 36.2817H989.182L988.459 34.986H916.979ZM951.636 89.4085L952.358 88.1127H982.683L983.405 89.4085H987.737L988.459 90.7043H991.348L992.07 92H993.514L994.236 93.2958H995.68L996.402 94.5916H997.846L998.568 95.8874H999.29L1000.01 97.1832H1000.73L1001.46 98.4789H1002.18L1002.9 99.7747H1003.62L1004.34 101.07H1005.07L1007.95 106.254H1008.68L1013.01 114.028V115.324L1015.17 119.211V120.507L1016.62 123.099V124.394L1017.34 125.69V126.986L1018.06 128.282V129.578L1018.78 130.873V132.169L1019.51 133.465V136.056L1020.23 137.352V139.944L1020.95 141.239V143.831L1021.67 145.127V149.014L1022.39 150.31V155.493L1023.12 156.789V165.859L1023.84 167.155V206.028L1023.12 207.324V215.099L1022.39 216.394V221.578L1021.67 222.873V228.056L1020.95 229.352V231.944L1020.23 233.24V235.831L1019.51 237.127V238.423L1018.78 239.718V242.31L1018.06 243.606V244.901L1017.34 246.197V247.493L1015.9 250.085V251.38L1015.17 252.676V253.972L1012.29 259.155V260.451L1008.68 266.93H1007.95L1005.79 270.817H1005.07L1003.62 273.409H1002.9L1002.18 274.704H1001.46L1000.73 276H1000.01L999.29 277.296H998.568L997.846 278.592H996.402L995.68 279.887H994.236L993.514 281.183H991.348L990.626 282.479H988.459L987.737 283.775H983.405L982.683 285.07H952.358L951.636 283.775V89.4085ZM1150.92 31.0986L1150.19 32.3944H1146.58L1145.86 33.6902H1142.97L1142.25 34.986H1140.09L1139.36 36.2817H1137.2L1136.48 37.5775H1135.03L1134.31 38.8733H1132.87L1132.14 40.1691H1131.42L1130.7 41.4648H1129.26L1128.53 42.7606H1127.81L1127.09 44.0564H1126.37L1125.65 45.3522H1124.92L1124.2 46.6479H1123.48L1122.76 47.9437H1122.04L1120.59 50.5353H1119.87L1119.15 51.831H1118.42L1116.98 54.4226H1116.26L1114.09 58.3099H1113.37L1109.76 64.7888H1109.04L1104.71 72.5634V73.8592L1101.1 80.3381V81.6339L1098.93 85.5212V86.817L1097.49 89.4085V90.7043L1096.04 93.2958V94.5916L1095.32 95.8874V97.1832L1094.6 98.4789V99.7747L1093.15 102.366V103.662L1092.43 104.958V106.254L1091.71 107.549V110.141L1090.99 111.437V112.732L1090.27 114.028V115.324L1089.54 116.62V119.211L1088.82 120.507V123.099L1088.1 124.394V126.986L1087.38 128.282V130.873L1086.66 132.169V136.056L1085.93 137.352V142.535L1085.21 143.831V149.014L1084.49 150.31V158.085L1083.77 159.38V177.521L1083.05 178.817V194.366L1083.77 195.662V212.507L1084.49 213.803V222.873L1085.21 224.169V229.352L1085.93 230.648V235.831L1086.66 237.127V239.718L1087.38 241.014V244.901L1088.1 246.197V248.789L1088.82 250.085V252.676L1089.54 253.972V256.563L1090.27 257.859V259.155L1090.99 260.451V261.747L1091.71 263.042V265.634L1092.43 266.93V268.225L1093.15 269.521V270.817L1094.6 273.409V274.704L1095.32 276V277.296L1096.04 278.592V279.887L1097.49 282.479V283.775L1098.93 286.366V287.662L1101.1 291.549V292.845L1105.43 300.62V301.916L1108.32 307.099H1109.04L1113.37 314.873H1114.09L1115.54 317.465H1116.26L1117.7 320.056H1118.42L1119.87 322.648H1120.59L1121.31 323.944H1122.04L1123.48 326.535H1124.2L1124.92 327.831H1125.65L1126.37 329.127H1127.09L1127.81 330.423H1129.26L1129.98 331.718H1130.7L1131.42 333.014H1132.87L1133.59 334.31H1134.31L1135.03 335.606H1136.48L1137.2 336.901H1139.36L1140.09 338.197H1142.25L1142.97 339.493H1145.86L1146.58 340.789H1150.19L1150.92 342.085H1173.3L1174.02 340.789H1177.63L1178.35 339.493H1181.24L1181.96 338.197H1184.13L1184.85 336.901H1187.02L1187.74 335.606H1189.18L1189.91 334.31H1191.35L1192.07 333.014H1192.79L1193.52 331.718H1194.96L1195.68 330.423H1196.4L1197.13 329.127H1197.85L1198.57 327.831H1199.29L1200.01 326.535H1200.74L1201.46 325.24H1202.18L1202.9 323.944H1203.62L1205.07 321.352H1205.79L1207.23 318.761H1207.96L1209.4 316.169H1210.12L1213.01 310.986H1213.73L1220.95 298.028V296.732L1223.84 291.549V290.254L1226.01 286.366V285.07L1227.45 282.479V281.183L1228.17 279.887V278.592L1229.62 276V274.704L1230.34 273.409V272.113L1231.06 270.817V269.521L1231.78 268.225V266.93L1232.51 265.634V264.338L1233.23 263.042V261.747L1233.95 260.451V259.155L1234.67 257.859V255.268L1235.39 253.972V251.38L1236.12 250.085V247.493L1236.84 246.197V243.606L1237.56 242.31V238.423L1238.28 237.127V233.24L1239 231.944V226.761L1239.73 225.465V218.986L1240.45 217.69V206.028L1241.17 204.732V168.451L1240.45 167.155V156.789L1239.73 155.493V147.718L1239 146.423V141.239L1238.28 139.944V136.056L1237.56 134.761V130.873L1236.84 129.578V126.986L1236.12 125.69V123.099L1235.39 121.803V119.211L1234.67 117.916V115.324L1233.95 114.028V112.732L1233.23 111.437V110.141L1232.51 108.845V107.549L1231.78 106.254V104.958L1231.06 103.662V102.366L1230.34 101.07V99.7747L1229.62 98.4789V97.1832L1228.9 95.8874V94.5916L1227.45 92V90.7043L1226.01 88.1127V86.817L1223.84 82.9296V81.6339L1220.95 76.4508V75.155L1213.73 62.1972H1213.01L1210.84 58.3099H1210.12L1207.96 54.4226H1207.23L1205.79 51.831H1205.07L1204.35 50.5353H1203.62L1202.18 47.9437H1201.46L1200.74 46.6479H1200.01L1199.29 45.3522H1198.57L1197.85 44.0564H1197.13L1196.4 42.7606H1195.68L1194.96 41.4648H1193.52L1192.79 40.1691H1192.07L1191.35 38.8733H1189.91L1189.18 37.5775H1187.74L1187.02 36.2817H1184.85L1184.13 34.986H1181.96L1181.24 33.6902H1179.08L1178.35 32.3944H1174.02L1173.3 31.0986H1150.92ZM1156.69 86.817L1157.41 85.5212H1166.8L1167.52 86.817H1171.86L1172.58 88.1127H1174.74L1175.47 89.4085H1176.91L1177.63 90.7043H1178.35L1179.08 92H1180.52L1181.24 93.2958H1181.96L1183.41 95.8874H1184.13L1184.85 97.1832H1185.57L1188.46 102.366H1189.18L1192.79 108.845V110.141L1195.68 115.324V116.62L1197.13 119.211V120.507L1197.85 121.803V123.099L1198.57 124.394V125.69L1199.29 126.986V128.282L1200.01 129.578V130.873L1200.74 132.169V133.465L1201.46 134.761V137.352L1202.18 138.648V141.239L1202.9 142.535V146.423L1203.62 147.718V151.606L1204.35 152.901V158.085L1205.07 159.38V169.747L1205.79 171.042V202.141L1205.07 203.437V212.507L1204.35 213.803V220.282L1203.62 221.578V225.465L1202.9 226.761V230.648L1202.18 231.944V234.535L1201.46 235.831V238.423L1200.74 239.718V241.014L1200.01 242.31V243.606L1199.29 244.901V246.197L1198.57 247.493V248.789L1197.85 250.085V251.38L1197.13 252.676V253.972L1195.68 256.563V257.859L1192.79 263.042V264.338L1189.18 270.817H1188.46L1186.3 274.704H1185.57L1184.13 277.296H1183.41L1182.69 278.592H1181.96L1181.24 279.887H1180.52L1179.8 281.183H1179.08L1178.35 282.479H1177.63L1176.91 283.775H1175.47L1174.74 285.07H1172.58L1171.86 286.366H1168.24L1167.52 287.662H1157.41L1156.69 286.366H1153.08L1152.36 285.07H1150.19L1149.47 283.775H1148.03L1147.31 282.479H1145.86L1145.14 281.183H1144.42L1143.7 279.887H1142.97L1142.25 278.592H1141.53L1140.81 277.296H1140.09L1137.92 273.409H1137.2L1129.98 260.451V259.155L1127.81 255.268V253.972L1127.09 252.676V251.38L1125.65 248.789V247.493L1124.92 246.197V244.901L1124.2 243.606V241.014L1123.48 239.718V238.423L1122.76 237.127V234.535L1122.04 233.24V230.648L1121.31 229.352V225.465L1120.59 224.169V218.986L1119.87 217.69V211.211L1119.15 209.916V195.662L1118.42 194.366V178.817L1119.15 177.521V163.268L1119.87 161.972V155.493L1120.59 154.197V149.014L1121.31 147.718V143.831L1122.04 142.535V139.944L1122.76 138.648V136.056L1123.48 134.761V133.465L1124.2 132.169V129.578L1124.92 128.282V126.986L1125.65 125.69V124.394L1126.37 123.099V121.803L1127.81 119.211V117.916L1129.26 115.324V114.028L1137.2 99.7747H1137.92L1140.09 95.8874H1140.81L1141.53 94.5916H1142.25L1142.97 93.2958H1143.7L1144.42 92H1145.14L1145.86 90.7043H1147.31L1148.03 89.4085H1149.47L1150.19 88.1127H1152.36L1153.08 86.817H1156.69Z" fill="black"/>
</svg>
